# xmcd CD database file
#
# Track frame offsets:
#	150
#	12637
#	28462
#	39562
#	51862
#	63750
#	72900
#	86550
#	102112
#	120787
#	128212
#	138712
#	148162
#
# Disc length: 2210 seconds
#
# Revision: 0
# Processed by: cddbd v1.5.2PL0 Copyright (c) Steve Scherf et al.
# Submitted via: CDex 1.51
#
DISCID=bc08a00d
DTITLE=Tony Trischka - Hill Country
DYEAR=2008
DGENRE=Country
TTITLE0=Brandy Station
TTITLE1=Sunny Days
TTITLE2=Bloozinee
TTITLE3=Crossville Breakdown
TTITLE4=Looking for the Light
TTITLE5=Hill Country
TTITLE6=Nw York Chimes
TTITLE7=Flat Gap
TTITLE8=Strawberry Plains
TTITLE9=Mississippi Sawyer
TTITLE10=Stop Action
TTITLE11=Crosseyed Cricket
TTITLE12=Buffalo Creek
EXTD=YEAR: 2008
EXTT0=
EXTT1=
EXTT2=
EXTT3=
EXTT4=
EXTT5=
EXTT6=
EXTT7=
EXTT8=
EXTT9=
EXTT10=
EXTT11=
EXTT12=
PLAYORDER=
